<svg width="45" height="44" viewBox="0 0 45 44" fill="none" xmlns="http://www.w3.org/2000/svg">
<path d="M5.84774 12.7371C5.37914 12.2556 5.00999 11.6865 4.76137 11.0622C4.51275 10.4379 4.38952 9.77074 4.39871 9.09873C4.40791 8.42673 4.54935 7.76307 4.81497 7.14564C5.08059 6.52822 5.46518 5.96912 5.94678 5.50027C6.42838 5.03142 6.99756 4.66201 7.62183 4.41312C8.24609 4.16423 8.91321 4.04074 9.5851 4.04969C10.257 4.05865 10.9205 4.19988 11.5377 4.46532C12.1549 4.73076 12.7138 5.11521 13.1824 5.59673L37.2683 30.3467L39.8455 40.3336L29.9337 37.4872L5.84774 12.7371Z" stroke="#DB5B9F" stroke-width="4" stroke-linecap="round" stroke-linejoin="round"/>
</svg>
