<svg width="50" height="34" viewBox="0 0 50 34" fill="none" xmlns="http://www.w3.org/2000/svg">
<path fill-rule="evenodd" clip-rule="evenodd" d="M0.419988 0.249416C0.30993 0.390484 0.170478 0.618108 0.110029 0.755071C0.0308301 0.934684 0.000166189 4.12895 0.000166189 12.1933C0.000166189 24.421 -0.0255173 23.8736 0.561686 24.1575C0.761685 24.2543 1.81715 24.2827 4.33413 24.2591L7.82883 24.2264L8.11369 23.8539C8.27033 23.6491 8.39855 23.3989 8.39855 23.2979C8.39855 23.197 8.74787 21.7223 9.17472 20.021C11.1651 12.089 11.9535 8.35814 12.3679 4.91047C12.4567 4.17104 12.5004 3.43069 12.4648 3.26533C12.1656 1.87312 8.82736 0.7618 3.16138 0.168106C0.879458 -0.071037 0.665006 -0.064651 0.419988 0.249416ZM45.8495 2.51255C42.8235 2.74986 39.7129 3.42373 37.1582 4.39558C35.9677 4.84832 35.4492 5.27757 35.4492 5.81002C35.4492 5.97413 35.6659 6.61868 35.9307 7.24226C37.3263 10.5282 40.7305 21.4308 41.6055 25.417C41.671 25.7153 41.8494 26.0783 42.04 26.3008L42.3632 26.6783H45.8462C48.0482 26.6783 49.3982 26.635 49.517 26.5608C50.0148 26.2497 49.9999 26.6214 49.9999 14.533C49.9999 2.31834 50.0222 2.82011 49.4655 2.52395C49.1795 2.37171 47.7049 2.36715 45.8495 2.51255ZM24.8687 5.13456C23.6818 5.33961 22.3494 6.32298 20.5969 8.28721C19.3998 9.62901 18.7822 10.566 18.1971 11.9284C17.8283 12.7872 17.7464 13.0915 17.7366 13.639L17.7247 14.3049L18.1153 14.5285C18.67 14.8461 19.6188 14.8971 20.1945 14.6404C20.6892 14.4197 21.4985 13.5962 21.9221 12.8824C22.2149 12.3889 22.6798 12.0811 23.1323 12.0811C23.2972 12.0811 23.9443 11.8245 24.5701 11.5109C25.7182 10.9357 26.133 10.8455 26.7231 11.0431C26.9004 11.1025 28.0497 12.168 29.46 13.5805C30.7972 14.9198 32.3285 16.426 32.8631 16.9278C35.2464 19.1651 37.2521 21.2982 38.5965 23.0257C38.9579 23.49 39.2779 23.8419 39.3074 23.8073C39.4262 23.6686 36.1574 13.218 35.0712 10.2635L34.4238 8.50297L33.2519 8.02857C32.6074 7.76764 31.0034 7.0647 29.6875 6.46655C26.7233 5.11917 26.0444 4.93157 24.8687 5.13456ZM14.1152 7.548C14.0885 7.68918 13.9522 8.42041 13.8126 9.17307C13.1874 12.5424 12.0472 17.5203 11.2286 20.4539L10.8493 21.8132L11.3297 22.4608C11.5939 22.817 12.1087 23.4369 12.4736 23.8384C13.4296 24.8903 17.0089 28.2202 20.0965 30.9304C23.0741 33.5438 23.5533 33.8446 24.9024 33.9453L25.6348 34L23.8545 31.9072C22.5346 30.3556 22.0586 29.7226 22.014 29.4595C21.8871 28.7127 22.5423 27.9461 23.1801 28.095C23.4057 28.1477 24.0616 28.8389 25.7873 30.843C27.0555 32.3157 28.1772 33.5279 28.28 33.5367C28.748 33.5766 29.2709 33.4818 29.5186 33.312C29.7595 33.147 30.1758 32.3707 30.1758 32.0869C30.1758 32.0278 29.0552 30.6716 27.6856 29.0731C25.7632 26.8296 25.1821 26.0851 25.1378 25.8092C25.0168 25.056 25.6682 24.297 26.3074 24.4462C26.5391 24.5001 27.2777 25.2935 29.4117 27.7799L32.2122 31.0428L32.9382 30.9884C33.5765 30.9406 33.7122 30.889 34.0624 30.5603C34.2813 30.3548 34.4872 30.1055 34.5198 30.0063C34.5622 29.8776 33.7141 28.8139 31.5527 26.2849C29.6656 24.0768 28.5033 22.6319 28.4651 22.4465C28.4299 22.2756 28.4677 21.9705 28.5538 21.7296C28.7273 21.2446 29.26 20.9136 29.6769 21.0319C29.8355 21.0768 31.1301 22.4994 33.1089 24.8034C35.9461 28.1071 36.3193 28.5029 36.5967 28.5029C37.3068 28.5029 37.892 27.843 37.8896 27.045C37.8882 26.6055 37.5028 25.7005 37.0046 24.9677C36.1004 23.6372 34.8006 22.268 31.2654 18.922C30.1728 17.8879 28.459 16.265 27.4568 15.3156L25.6348 13.5893L25.3418 13.7634C25.1807 13.8592 25.0269 13.9715 25 14.0131C24.928 14.1244 24.1259 14.445 23.7199 14.525C23.4556 14.577 23.185 14.8012 22.6388 15.4205C21.0831 17.185 19.4271 17.7095 17.4889 17.0514C16.5196 16.7223 16.0735 16.3388 15.6766 15.4934C15.1489 14.3693 15.311 12.8046 16.1593 10.8346C16.5975 9.81672 17.4762 8.30009 17.9974 7.66204L18.3001 7.29141H16.232C14.1669 7.29141 14.1639 7.29175 14.1152 7.548Z" fill="#DB5B9F"/>
</svg>
