<svg width="44" height="44" viewBox="0 0 44 44" fill="none" xmlns="http://www.w3.org/2000/svg">
<mask id="path-1-inside-1_530_417" fill="white">
<path fill-rule="evenodd" clip-rule="evenodd" d="M23.7939 0.0968405C19.0007 0.955049 15.6549 5.69457 16.1458 10.9307C16.5382 15.1166 19.2178 18.5049 23.0015 19.5997C23.994 19.8869 25.6662 19.9528 26.7475 19.7472C30.5912 19.0167 33.5674 15.7463 34.2198 11.5364C34.3957 10.4007 34.2826 8.29924 33.9872 7.21824C33.044 3.76578 30.5892 1.17093 27.4426 0.299803C26.3503 -0.00258788 24.8234 -0.0874976 23.7939 0.0968405ZM26.5192 2.00501C28.9171 2.51657 30.7977 4.06847 31.8484 6.40259C33.926 11.0177 31.5254 16.5831 26.9395 17.7829C25.4751 18.166 23.5956 17.9909 22.2614 17.347C20.184 16.3444 18.5897 14.2734 18.0103 11.8242C17.745 10.7028 17.7862 8.87027 18.1026 7.71889C19.2018 3.71872 22.8724 1.2269 26.5192 2.00501ZM24.4523 4.02772C24.3193 4.17291 24.2104 4.38989 24.2104 4.50984C24.2104 4.66294 24.1089 4.78089 23.8696 4.90535C23.2469 5.22937 22.8501 5.65612 22.5472 6.32769C22.1645 7.17599 22.128 8.16056 22.4524 8.889C22.8521 9.78676 23.8485 10.5066 24.8656 10.6321C25.4997 10.7105 26.0154 11.0128 26.3033 11.4752C26.7548 12.2005 26.3803 13.1097 25.5228 13.3695C25.0179 13.5225 24.7534 13.5011 24.4214 13.2801C24.0543 13.0359 23.872 12.6587 23.7884 11.9699C23.7034 11.2715 23.4453 10.9731 22.9258 10.9731C22.6454 10.9731 22.491 11.038 22.3155 11.2295C22.0985 11.4663 22.0833 11.5408 22.1162 12.2058C22.1779 13.4534 22.8317 14.5682 23.8026 15.0811C24.0269 15.1995 24.2104 15.3622 24.2104 15.4424C24.2104 15.7459 24.643 16.0797 25.0362 16.0797C25.4337 16.0797 25.862 15.7451 25.862 15.4344C25.862 15.3424 26.0977 15.1641 26.4479 14.9908C27.1422 14.6472 27.7263 14.0442 27.9936 13.395C28.2798 12.6997 28.2685 11.4978 27.9694 10.8229C27.5306 9.83332 26.4168 8.96079 25.4095 8.81761C24.6913 8.71557 24.2207 8.48167 24.0627 8.14824C23.7639 7.51763 24.1646 6.69156 24.8747 6.47458C25.5588 6.26561 26.1373 6.68045 26.1373 7.38005C26.1373 8.33078 27.2419 8.72579 27.6947 7.93707C27.8607 7.64799 27.8321 6.68926 27.6421 6.17109C27.4682 5.69677 26.8581 5.07467 26.2718 4.77398C26.0465 4.65833 25.862 4.49442 25.862 4.40951C25.862 4.3247 25.7607 4.14477 25.6368 4.0096C25.3183 3.66195 24.78 3.67016 24.4523 4.02772ZM39.5796 17.717C38.6654 17.9756 38.3492 18.2526 35.6479 21.1613L33.0009 24.0115L32.7431 23.6703C32.4093 23.2283 31.8819 22.8332 31.2645 22.5625C30.7881 22.3536 30.6047 22.3439 25.9538 22.2815C21.4699 22.2214 21.0794 22.2021 20.3108 22.0028C19.8566 21.885 19.1753 21.7097 18.7968 21.6131C17.8623 21.3746 15.7053 21.3775 14.818 21.6184C13.9581 21.8519 12.9112 22.3182 12.1624 22.8015C11.01 23.545 9.63523 24.9314 8.77484 26.2176C8.66455 26.3826 8.62601 26.3784 8.10722 26.1449C7.38216 25.8186 6.45561 25.8032 5.7021 26.105C5.23167 26.2934 5.01045 26.4963 3.76495 27.8823C2.99162 28.7428 1.82522 30.0643 1.17283 30.8187C-0.476577 32.7264 -0.543467 32.3732 1.98864 35.1287C3.96433 37.2787 3.99553 37.3071 4.37843 37.3071C4.91511 37.3071 5.2169 36.9766 5.2169 36.3887C5.2169 35.9699 5.18781 35.9301 3.65631 34.2589C2.79793 33.3223 2.10636 32.5242 2.11939 32.4855C2.13242 32.4468 3.04402 31.399 4.14518 30.157C5.80946 28.2799 6.20814 27.881 6.50791 27.7929C7.27141 27.5686 7.26994 27.5673 11.2142 31.7546C13.2134 33.877 14.8946 35.7063 14.9503 35.82C15.102 36.1292 15.083 36.817 14.9134 37.157C14.831 37.3221 13.9002 38.4261 12.8449 39.6101L10.9262 41.7629L10.3274 41.1371C9.79966 40.5852 9.68598 40.5112 9.36639 40.5112C8.86063 40.5112 8.52012 40.8866 8.52012 41.4441C8.52012 41.8284 8.57059 41.9018 9.5065 42.8789C10.5591 43.9778 10.8645 44.1506 11.3065 43.898C11.4372 43.8232 12.5972 42.5801 13.8843 41.1356C16.6416 38.0409 16.7251 37.9064 16.7295 36.5561C16.731 36.0605 16.7012 35.5628 16.6632 35.45C16.5307 35.0569 17.8386 34.9765 25.5409 34.904C31.7158 34.8459 32.5774 34.8189 33.0649 34.6678C33.8479 34.4251 34.8227 33.8998 35.3682 33.4265C35.8612 32.9987 43.1935 23.6551 43.5476 23.0033C43.6609 22.7948 43.8224 22.3201 43.9065 21.9485C44.1705 20.7808 43.8719 19.6332 43.0564 18.6817C42.2717 17.7664 40.8245 17.3647 39.5796 17.717ZM41.4996 19.711C41.9276 19.9768 42.2864 20.6495 42.2864 21.1863C42.2864 21.3892 42.1936 21.7406 42.08 21.967C41.8416 22.4423 35.0492 31.1777 34.4468 31.7837C34.0239 32.2091 33.4038 32.592 32.7896 32.8069C32.512 32.9041 30.7352 32.9519 25.495 33.0032C19.1594 33.0653 18.435 33.0897 17.018 33.2873L15.4685 33.5036L14.6782 32.6805C11.9423 29.8316 9.98822 27.741 9.98822 27.6631C9.98822 27.5138 10.8515 26.3778 11.3772 25.8354C12.5779 24.5967 13.7993 23.84 15.1761 23.4818C16.2992 23.1897 17.7969 23.2447 19.1467 23.6279C20.9143 24.1296 21.6166 24.1863 26.0914 24.1889C28.6842 24.1904 30.3494 24.2303 30.567 24.2963C31.3452 24.5321 31.9111 25.4682 31.7882 26.3164C31.7046 26.8938 31.3519 27.4479 30.9122 27.6927C30.5682 27.8842 30.3784 27.8949 27.3309 27.8949C23.91 27.8949 23.6122 27.9317 23.392 28.3806C23.2102 28.7512 23.2732 29.248 23.5387 29.5378L23.7846 29.806L27.3695 29.7767L30.9545 29.7473L31.5309 29.4569C32.585 28.9257 33.3408 27.7914 33.516 26.4777C33.5764 26.0247 33.6585 25.925 36.4243 22.9403C38.3669 20.8439 39.3923 19.8086 39.6544 19.6787C40.2021 19.4074 41.0341 19.4219 41.4996 19.711ZM20.1416 28.2087C19.9103 28.3553 19.7207 28.8872 19.7797 29.224C19.8446 29.5941 20.216 29.8975 20.6045 29.8975C21.0382 29.8975 21.2668 29.7411 21.4209 29.3388C21.5345 29.042 21.5345 28.9507 21.4209 28.6539C21.3487 28.4657 21.2064 28.2629 21.1045 28.2033C20.8695 28.0662 20.3619 28.0689 20.1416 28.2087ZM6.27209 29.7855C5.84313 29.9079 5.47216 30.1509 5.15836 30.5148C4.67884 31.071 4.53377 31.4729 4.53175 32.2506C4.53028 32.8416 4.57249 33.0354 4.80115 33.487C5.3515 34.5737 6.52837 35.0672 7.59246 34.6576C8.15254 34.4419 8.54884 34.0697 8.84879 33.4776C9.07249 33.036 9.11498 32.8389 9.11351 32.2506C9.11094 31.2468 8.66565 30.4429 7.86168 29.9907C7.4752 29.7733 6.67637 29.6701 6.27209 29.7855ZM7.23553 31.8C7.61595 32.2151 7.35867 32.9014 6.82263 32.9014C6.28659 32.9014 6.02931 32.2151 6.40973 31.8C6.51066 31.6898 6.69647 31.5997 6.82263 31.5997C6.9488 31.5997 7.1346 31.6898 7.23553 31.8ZM6.53424 38.1073C6.24154 38.2362 6.0427 38.6065 6.0427 39.0227C6.0427 39.3122 6.10372 39.4481 6.32504 39.6512C6.77079 40.0606 7.39721 39.9401 7.65532 39.3953C7.8147 39.0591 7.81874 38.8968 7.67642 38.5559C7.4908 38.1112 6.98045 37.9108 6.53424 38.1073Z"/>
</mask>
<path fill-rule="evenodd" clip-rule="evenodd" d="M23.7939 0.0968405C19.0007 0.955049 15.6549 5.69457 16.1458 10.9307C16.5382 15.1166 19.2178 18.5049 23.0015 19.5997C23.994 19.8869 25.6662 19.9528 26.7475 19.7472C30.5912 19.0167 33.5674 15.7463 34.2198 11.5364C34.3957 10.4007 34.2826 8.29924 33.9872 7.21824C33.044 3.76578 30.5892 1.17093 27.4426 0.299803C26.3503 -0.00258788 24.8234 -0.0874976 23.7939 0.0968405ZM26.5192 2.00501C28.9171 2.51657 30.7977 4.06847 31.8484 6.40259C33.926 11.0177 31.5254 16.5831 26.9395 17.7829C25.4751 18.166 23.5956 17.9909 22.2614 17.347C20.184 16.3444 18.5897 14.2734 18.0103 11.8242C17.745 10.7028 17.7862 8.87027 18.1026 7.71889C19.2018 3.71872 22.8724 1.2269 26.5192 2.00501ZM24.4523 4.02772C24.3193 4.17291 24.2104 4.38989 24.2104 4.50984C24.2104 4.66294 24.1089 4.78089 23.8696 4.90535C23.2469 5.22937 22.8501 5.65612 22.5472 6.32769C22.1645 7.17599 22.128 8.16056 22.4524 8.889C22.8521 9.78676 23.8485 10.5066 24.8656 10.6321C25.4997 10.7105 26.0154 11.0128 26.3033 11.4752C26.7548 12.2005 26.3803 13.1097 25.5228 13.3695C25.0179 13.5225 24.7534 13.5011 24.4214 13.2801C24.0543 13.0359 23.872 12.6587 23.7884 11.9699C23.7034 11.2715 23.4453 10.9731 22.9258 10.9731C22.6454 10.9731 22.491 11.038 22.3155 11.2295C22.0985 11.4663 22.0833 11.5408 22.1162 12.2058C22.1779 13.4534 22.8317 14.5682 23.8026 15.0811C24.0269 15.1995 24.2104 15.3622 24.2104 15.4424C24.2104 15.7459 24.643 16.0797 25.0362 16.0797C25.4337 16.0797 25.862 15.7451 25.862 15.4344C25.862 15.3424 26.0977 15.1641 26.4479 14.9908C27.1422 14.6472 27.7263 14.0442 27.9936 13.395C28.2798 12.6997 28.2685 11.4978 27.9694 10.8229C27.5306 9.83332 26.4168 8.96079 25.4095 8.81761C24.6913 8.71557 24.2207 8.48167 24.0627 8.14824C23.7639 7.51763 24.1646 6.69156 24.8747 6.47458C25.5588 6.26561 26.1373 6.68045 26.1373 7.38005C26.1373 8.33078 27.2419 8.72579 27.6947 7.93707C27.8607 7.64799 27.8321 6.68926 27.6421 6.17109C27.4682 5.69677 26.8581 5.07467 26.2718 4.77398C26.0465 4.65833 25.862 4.49442 25.862 4.40951C25.862 4.3247 25.7607 4.14477 25.6368 4.0096C25.3183 3.66195 24.78 3.67016 24.4523 4.02772ZM39.5796 17.717C38.6654 17.9756 38.3492 18.2526 35.6479 21.1613L33.0009 24.0115L32.7431 23.6703C32.4093 23.2283 31.8819 22.8332 31.2645 22.5625C30.7881 22.3536 30.6047 22.3439 25.9538 22.2815C21.4699 22.2214 21.0794 22.2021 20.3108 22.0028C19.8566 21.885 19.1753 21.7097 18.7968 21.6131C17.8623 21.3746 15.7053 21.3775 14.818 21.6184C13.9581 21.8519 12.9112 22.3182 12.1624 22.8015C11.01 23.545 9.63523 24.9314 8.77484 26.2176C8.66455 26.3826 8.62601 26.3784 8.10722 26.1449C7.38216 25.8186 6.45561 25.8032 5.7021 26.105C5.23167 26.2934 5.01045 26.4963 3.76495 27.8823C2.99162 28.7428 1.82522 30.0643 1.17283 30.8187C-0.476577 32.7264 -0.543467 32.3732 1.98864 35.1287C3.96433 37.2787 3.99553 37.3071 4.37843 37.3071C4.91511 37.3071 5.2169 36.9766 5.2169 36.3887C5.2169 35.9699 5.18781 35.9301 3.65631 34.2589C2.79793 33.3223 2.10636 32.5242 2.11939 32.4855C2.13242 32.4468 3.04402 31.399 4.14518 30.157C5.80946 28.2799 6.20814 27.881 6.50791 27.7929C7.27141 27.5686 7.26994 27.5673 11.2142 31.7546C13.2134 33.877 14.8946 35.7063 14.9503 35.82C15.102 36.1292 15.083 36.817 14.9134 37.157C14.831 37.3221 13.9002 38.4261 12.8449 39.6101L10.9262 41.7629L10.3274 41.1371C9.79966 40.5852 9.68598 40.5112 9.36639 40.5112C8.86063 40.5112 8.52012 40.8866 8.52012 41.4441C8.52012 41.8284 8.57059 41.9018 9.5065 42.8789C10.5591 43.9778 10.8645 44.1506 11.3065 43.898C11.4372 43.8232 12.5972 42.5801 13.8843 41.1356C16.6416 38.0409 16.7251 37.9064 16.7295 36.5561C16.731 36.0605 16.7012 35.5628 16.6632 35.45C16.5307 35.0569 17.8386 34.9765 25.5409 34.904C31.7158 34.8459 32.5774 34.8189 33.0649 34.6678C33.8479 34.4251 34.8227 33.8998 35.3682 33.4265C35.8612 32.9987 43.1935 23.6551 43.5476 23.0033C43.6609 22.7948 43.8224 22.3201 43.9065 21.9485C44.1705 20.7808 43.8719 19.6332 43.0564 18.6817C42.2717 17.7664 40.8245 17.3647 39.5796 17.717ZM41.4996 19.711C41.9276 19.9768 42.2864 20.6495 42.2864 21.1863C42.2864 21.3892 42.1936 21.7406 42.08 21.967C41.8416 22.4423 35.0492 31.1777 34.4468 31.7837C34.0239 32.2091 33.4038 32.592 32.7896 32.8069C32.512 32.9041 30.7352 32.9519 25.495 33.0032C19.1594 33.0653 18.435 33.0897 17.018 33.2873L15.4685 33.5036L14.6782 32.6805C11.9423 29.8316 9.98822 27.741 9.98822 27.6631C9.98822 27.5138 10.8515 26.3778 11.3772 25.8354C12.5779 24.5967 13.7993 23.84 15.1761 23.4818C16.2992 23.1897 17.7969 23.2447 19.1467 23.6279C20.9143 24.1296 21.6166 24.1863 26.0914 24.1889C28.6842 24.1904 30.3494 24.2303 30.567 24.2963C31.3452 24.5321 31.9111 25.4682 31.7882 26.3164C31.7046 26.8938 31.3519 27.4479 30.9122 27.6927C30.5682 27.8842 30.3784 27.8949 27.3309 27.8949C23.91 27.8949 23.6122 27.9317 23.392 28.3806C23.2102 28.7512 23.2732 29.248 23.5387 29.5378L23.7846 29.806L27.3695 29.7767L30.9545 29.7473L31.5309 29.4569C32.585 28.9257 33.3408 27.7914 33.516 26.4777C33.5764 26.0247 33.6585 25.925 36.4243 22.9403C38.3669 20.8439 39.3923 19.8086 39.6544 19.6787C40.2021 19.4074 41.0341 19.4219 41.4996 19.711ZM20.1416 28.2087C19.9103 28.3553 19.7207 28.8872 19.7797 29.224C19.8446 29.5941 20.216 29.8975 20.6045 29.8975C21.0382 29.8975 21.2668 29.7411 21.4209 29.3388C21.5345 29.042 21.5345 28.9507 21.4209 28.6539C21.3487 28.4657 21.2064 28.2629 21.1045 28.2033C20.8695 28.0662 20.3619 28.0689 20.1416 28.2087ZM6.27209 29.7855C5.84313 29.9079 5.47216 30.1509 5.15836 30.5148C4.67884 31.071 4.53377 31.4729 4.53175 32.2506C4.53028 32.8416 4.57249 33.0354 4.80115 33.487C5.3515 34.5737 6.52837 35.0672 7.59246 34.6576C8.15254 34.4419 8.54884 34.0697 8.84879 33.4776C9.07249 33.036 9.11498 32.8389 9.11351 32.2506C9.11094 31.2468 8.66565 30.4429 7.86168 29.9907C7.4752 29.7733 6.67637 29.6701 6.27209 29.7855ZM7.23553 31.8C7.61595 32.2151 7.35867 32.9014 6.82263 32.9014C6.28659 32.9014 6.02931 32.2151 6.40973 31.8C6.51066 31.6898 6.69647 31.5997 6.82263 31.5997C6.9488 31.5997 7.1346 31.6898 7.23553 31.8ZM6.53424 38.1073C6.24154 38.2362 6.0427 38.6065 6.0427 39.0227C6.0427 39.3122 6.10372 39.4481 6.32504 39.6512C6.77079 40.0606 7.39721 39.9401 7.65532 39.3953C7.8147 39.0591 7.81874 38.8968 7.67642 38.5559C7.4908 38.1112 6.98045 37.9108 6.53424 38.1073Z" fill="#DB5B9F" stroke="#DB5B9F" stroke-width="20" mask="url(#path-1-inside-1_530_417)"/>
</svg>
