<svg width="44" height="44" viewBox="0 0 44 44" fill="none" xmlns="http://www.w3.org/2000/svg">
<path d="M25.6666 3.66699H10.9999C10.0275 3.66699 9.09483 4.0533 8.40719 4.74093C7.71956 5.42857 7.33325 6.3612 7.33325 7.33366V36.667C7.33325 37.6395 7.71956 38.5721 8.40719 39.2597C9.09483 39.9474 10.0275 40.3337 10.9999 40.3337H32.9999C33.9724 40.3337 34.905 39.9474 35.5926 39.2597C36.2803 38.5721 36.6666 37.6395 36.6666 36.667V14.667L25.6666 3.66699Z" stroke="#DB5B9F" stroke-width="4" stroke-linecap="round" stroke-linejoin="round"/>
<path d="M25.6667 3.66699V14.667H36.6667" stroke="#DB5B9F" stroke-width="4" stroke-linecap="round" stroke-linejoin="round"/>
<path d="M29.3334 23.8335H14.6667" stroke="#DB5B9F" stroke-width="4" stroke-linecap="round" stroke-linejoin="round"/>
<path d="M29.3334 31.167H14.6667" stroke="#DB5B9F" stroke-width="4" stroke-linecap="round" stroke-linejoin="round"/>
<path d="M18.3334 16.5002H16.5001H14.6667" stroke="#DB5B9F" stroke-width="4" stroke-linecap="round" stroke-linejoin="round"/>
</svg>
