<svg width="44" height="44" viewBox="0 0 44 44" fill="none" xmlns="http://www.w3.org/2000/svg">
<path d="M20.1667 7.3335H7.33341C6.36095 7.3335 5.42832 7.7198 4.74069 8.40744C4.05306 9.09507 3.66675 10.0277 3.66675 11.0002V36.6668C3.66675 37.6393 4.05306 38.5719 4.74069 39.2596C5.42832 39.9472 6.36095 40.3335 7.33341 40.3335H33.0001C33.9725 40.3335 34.9052 39.9472 35.5928 39.2596C36.2804 38.5719 36.6667 37.6393 36.6667 36.6668V23.8335" stroke="#DB5B9F" stroke-width="4" stroke-linecap="round" stroke-linejoin="round"/>
<path d="M33.9167 4.58367C34.6461 3.85432 35.6353 3.44458 36.6667 3.44458C37.6982 3.44458 38.6874 3.85432 39.4167 4.58367C40.1461 5.31301 40.5558 6.30222 40.5558 7.33367C40.5558 8.36512 40.1461 9.35432 39.4167 10.0837L22.0001 27.5003L14.6667 29.3337L16.5001 22.0003L33.9167 4.58367Z" stroke="#DB5B9F" stroke-width="4" stroke-linecap="round" stroke-linejoin="round"/>
</svg>
